<svg xmlns="http://www.w3.org/2000/svg" viewBox="0 0 100 100" width="100" height="100">
  <path d="M74.459,56.736l-8.543,10.787V49.144L51.5,30.979V20h6v-3h-6v-6h-3v6h-6v3h6v10.976L34.083,49.144v18.379l-8.543-10.787  L13.999,71.313V89h72.003V71.313L74.459,56.736z M34.083,86h-7.042V75.75h-3V86h-7.043V72.355l8.542-10.787l8.543,10.787V86z   M54.875,86h-9.75V64.643L50,58.43l4.875,6.213V86z M62.916,86h-5.041V63.607L50,53.57l-7.875,10.037V86h-5.042V50.189L50,33.913  l12.917,16.276V86z M83.002,86h-7.043V75.75h-3V86h-7.043V72.355l8.543-10.787l8.543,10.787V86z"></path>
</svg>
